<svg xmlns="http://www.w3.org/2000/svg" width="404" height="680" viewBox="0 0 404 680"><path d="M284.39,348.19h0q3.23-5.94,6.55-12.15c26.83-50.43,55.92-113.19,56.91-149.85,1.16-43.26-5.12-65-11.33-78.51-2.67-5.85-5.34-10.16-7.39-14-.72-1.35-1.36-2.66-1.9-4a115.08,115.08,0,0,0-5.49-10.93h0a.22.22,0,0,1,0-.07c-1.51-2.71-3.14-5.48-4.79-8.2l-.16-.26c-1.21-2-2.42-3.94-3.58-5.81C308.5,57,304.5,51,303.91,49.66c-1.23-2.7-6.39-6.25-16.57-6.25a34.83,34.83,0,0,1-7.1-1.16h-.05c-16.61-4-50.5-16.9-52.89-18.24-2.82-1.6-19.27-2-23.44-1.72S153.4,31.38,147,31.62a33.38,33.38,0,0,0-26.15,13.75c-8.23,11.29-5.77,10.19-11.79,12.15S59.12,87.11,54,171.08s92.07,218,100.18,239.39c0,0-41.62,92-44.93,146.54a137.83,137.83,0,0,0,.24,21.19q.36,4,1,7.61c5.44,33.18,24.57,47,37.82,52.94,3.07,1.37,5.67,2.52,8,3.45a45.85,45.85,0,0,0,8.7,2.72c5.73,1.06,11.41.39,22.18-1.69a69.39,69.39,0,0,0,15.67,6.24h0q2.41.67,5.15,1.28h0c1.37.3,2.8.57,4.28.82,2.76.46,5.71.83,8.83,1,.84,0,1.68.1,2.54.13s1.61.07,2.43.08c1.78,0,3.6,0,5.48-.08h0a95.55,95.55,0,0,0,20.64-3.18A104.37,104.37,0,0,0,268,643.92c.73-.32,1.47-.66,2.2-1a29.84,29.84,0,0,0,9-3.62c7.41-4.28,17.64-13.35,23.66-32.22h0a90.88,90.88,0,0,0,2.45-9.37,136,136,0,0,0-.35-56.69c-.14-.63-.27-1.24-.42-1.85h0a166.92,166.92,0,0,0-7.36-23.62c-.67-1.71-1.34-3.33-2-4.88h0c-.66-1.57-1.3-3-1.92-4.43C287,492.1,264.86,449.09,253,426.92c-1.72-3.22-3.23-6-4.44-8.18-.29-.53-.57-1-.83-1.48C247,416,246.43,415,246,414.34c0,0,1.72-2.75,4.71-7.67C257.35,395.79,270.17,374.27,284.39,348.19ZM143.05,120h0q1-2.31,2.07-4.59h0c.29-.23,8.72-6.76,26.11-8.21a100.61,100.61,0,0,1,29.51,2.27h0c11.09,2.77,45,15.58,46.42,68.91h0c-.76,18.44-5.21,41.28-14.32,69.35C225,272,213.59,300.24,198.05,332.94h0c-.15-.19-2.58-3.29-6.42-8.75-2.87-4.09-6.54-9.5-10.63-16-14.51-23.05-34.35-59.75-43.12-99.54C131.41,179.34,131,148.38,143.05,120Z" fill="#efece8"/><path d="M195.34,578.84c-3,17.42-9.18,30.64-15.73,40.37h0c-11.12,16.52-23.38,23-23.38,23-2.31-.93-4.91-2.08-8-3.45C135,632.81,115.86,619,110.42,585.81q-.61-3.64-1-7.61c11.14,35.13,37.22,43.35,53.53,38,8.83-2.91,12.91-7.3,14.73-11.23a14,14,0,0,0,1.1-8.84l4.42-16Z" fill="#ebe7e3"/><path d="M140.07,606.4c-10.31-6.76-17.7-20.15-17.24-40.14,1.48-64.45,37-143.76,37-143.76s.39.62,1.08,1.83a258,258,0,0,1,12.79,25.84c2.64,6.11,5.43,13.11,8.15,20.85,7.78,22.16,15,50.48,16.35,81.83C200.4,603.68,163,621.43,140.07,606.4Z" fill="#9a9794"/><path d="M143.64,476.58c-5.5,25.83-19.74,100.23-3.57,129.82-10.31-6.76-17.7-20.15-17.24-40.14,1.48-64.45,37-143.76,37-143.76s.39.62,1.08,1.83C158.05,430.65,148.75,452.55,143.64,476.58Z" fill="#aca9a6"/><path d="M166.2,576.48c-1.47.27-7.28-2.49-12.24-36.9-4-27.38,12.7-72.21,19.69-89.41,2.64,6.11,5.43,13.11,8.15,20.85C146.19,538.22,167.57,576.22,166.2,576.48Z" fill="#8f8c8a"/><path d="M179.6,619.21c-11.12,16.52-23.38,23-23.38,23-2.31-.93-4.91-2.08-8-3.45C135,632.81,115.86,619,110.42,585.81c5.81,13.73,14,27.76,24.57,34.71C159.4,636.48,179.18,619.57,179.6,619.21Z" fill="#ccc9c6"/><path d="M108.47,74.22S86.7,138.3,92.67,194.77,113.38,277,118.78,314.84c0,0-9.71-55.49-13.57-68.75S90.4,172.75,96,149.18s3.49-32.24,3.49-32.24S103.56,88.7,108.47,74.22Z" fill="#ccc9c6"/><path d="M148.74,398s13.75-24.92,6.38-67.65-4.91-59.41-4.91-59.41l-8.55-36.1-1.87,1.43s12.63,90.4,13.37,102.68S158.56,361.73,148.74,398Z" fill="#e0dcd9"/><path d="M305.27,597.69a90.88,90.88,0,0,1-2.45,9.37h0c-6,18.87-16.25,27.94-23.66,32.22a29.84,29.84,0,0,1-9,3.62s1.49-2.63,3.6-6.82h0c1-2,2.16-4.33,3.36-6.91,5.05-10.82,11-25.75,11-36,0-9.2-.22-24.58-1-39-.08-1.58-.17-3.15-.27-4.7-.22-3.62-.48-7.13-.78-10.42h0c-.67-7.35-1.54-13.52-2.65-17.2C279.71,509.38,264,480.54,264,480.54s-5.25-5.59-12.55-13.41h0c-3.82-4.08-8.18-8.76-12.66-13.59l-.13-.14-2.1-2.27c-6.66-7.18-13.38-14.47-18.68-20.34h0c-2.71-3-5-5.6-6.81-7.63s-2.89-3.39-3.38-4.1c-1.07-1.53-3.58-5.68-6.83-11.12h0c-9.46-15.86-25.13-42.8-29.51-48.65-2.66-3.53-12.76-34.2-21.17-69.14h0c-3.7-15.41-7.09-31.65-9.36-46.75-.06-.41-.12-.8-.17-1.17-.2-1.38-.4-2.74-.57-4.09,0-.23-.06-.45-.09-.64s-.05-.33-.06-.47,0-.19,0-.27,0-.16,0-.22a.22.22,0,0,1,0-.08,1.23,1.23,0,0,0,0-.13s0,0,0,0v0a205.6,205.6,0,0,1-1.93-25.89c0-.57,0-1.13,0-1.69,8.77,39.79,28.61,76.49,43.12,99.54,4.09,6.5,7.76,11.91,10.63,16,3.84,5.46,6.27,8.56,6.42,8.75h0c15.54-32.7,26.93-60.93,34.81-85.25L248.81,272l6.18,9.39,9.7,14.76,16.7,25.39,4.8,7.29h0L291,336q-3.31,6.21-6.55,12.15h0c-14.22,26.08-27,47.6-33.65,58.48-3,4.92-4.71,7.67-4.71,7.67.4.66,1,1.65,1.69,2.92.26.46.54.95.83,1.48,1.21,2.19,2.72,5,4.44,8.18,11.87,22.17,34,65.18,40.24,79.29.62,1.39,1.26,2.86,1.92,4.43h0a32,32,0,0,1,2,4.88h0a166.92,166.92,0,0,1,7.36,23.62h0c.15.61.28,1.22.42,1.85A136,136,0,0,1,305.27,597.69Z" fill="#fffbf7"/><path d="M177,62.06s-50.36,19.25-61.82,90.28,43,141.38,18.36,216.14c0,0,15.84-34.62-14.73-120.8S116.39,84.9,177,62.06Z" fill="#ccc9c6"/><path d="M247.18,178.34c-1.44-53.33-35.33-66.14-46.42-68.91q3.86.82,8,2C232.44,118,248.91,137.28,247.18,178.34Z"/><path d="M347.86,186.18c-1,36.66-30.08,99.42-56.91,149.85q-3.31,6.21-6.55,12.15h0c-14.22,26.08-27,47.6-33.65,58.48-3,4.92-4.71,7.67-4.71,7.67L238,400.67l-2.47-4.18h0l-4.32-7.32-5.28-9-11.15-18.91-16.7-28.34c15.54-32.7,26.93-60.93,34.81-85.25,9.11-28.07,13.56-50.91,14.32-69.35h0c-1.44-53.33-35.33-66.14-46.42-68.91h0a100.61,100.61,0,0,0-29.51-2.27c-17.39,1.45-25.82,8-26.11,8.21C164.31,86.11,179.7,73.19,194,69.1A40.65,40.65,0,0,1,211.15,68c8.32,1.16,16.61,4.43,25.49,8.14,12.81,5.37,22.06,5.19,28.73,3h0a27.54,27.54,0,0,0,7-3.5c4.16-2.87,6.64-6.17,8.11-7.41l0,0h0q.54-.45,1.2-1h0c4.13-3.17,11.56-7.43,21.7-3.45,10.7,4.21,17.59,14,18.22,14.88a.22.22,0,0,0,0,.07h0a115.08,115.08,0,0,1,5.49,10.93c.54,1.29,1.18,2.6,1.9,4,2.05,3.87,4.72,8.18,7.39,14C342.74,121.2,349,142.92,347.86,186.18Z" fill="#ccc9c6"/><path d="M336.53,107.67l-2.42,16.79h-4.82v0c3.63-35.92-11.51-46.29-22.07-55.74-10.35-9.27-24.88-1.73-25.44-1.43,4.13-3.17,11.56-7.43,21.7-3.45,10.7,4.21,17.59,14,18.22,14.88a.22.22,0,0,0,0,.07h0a115.08,115.08,0,0,1,5.49,10.93c.54,1.29,1.18,2.6,1.9,4C331.19,97.51,333.86,101.82,336.53,107.67Z" fill="#bbb8b5"/><path d="M322.33,196.49c-2.95,21.12-23.82,59.91-29.81,75.13s-6.69,41-6.7,41.52h0L287,319.5l-.85,9.28h0l-1.79,19.39h0c-14.22,26.08-27,47.6-33.65,58.48-3,4.92-4.71,7.67-4.71,7.67L238,400.67l-2.47-4.18h0l-4.32-7.32-5.28-9-11.15-18.91-16.7-28.34c15.54-32.7,26.93-60.93,34.81-85.25,9.11-28.07,13.56-50.91,14.32-69.35h0c-1.44-53.33-35.33-66.14-46.42-68.91h0a100.61,100.61,0,0,0-29.51-2.27c-17.39,1.45-25.82,8-26.11,8.21C164.31,86.11,179.7,73.19,194,69.1a81.17,81.17,0,0,0,21.26,21.44c1.44,1,2.95,2,4.53,3h0a133,133,0,0,0,29.63,13.56h0c2.18.72,4.43,1.41,6.77,2.07s4.46,1.32,6.58,2h0C330.92,133.25,325.18,176,322.33,196.49Z" fill="#bbb8b5"/><path d="M347.86,186.18c-1,36.66-30.08,99.42-56.91,149.85q-3.31,6.21-6.55,12.15h0c-14.22,26.08-27,47.6-33.65,58.48-3,4.92-4.71,7.67-4.71,7.67L238,400.67l-2.47-4.18h0c.25-.34,10-14.13,23.29-35.74h0c5.46-8.91,11.5-19.15,17.72-30.32h0q2.43-4.37,4.88-8.92,2.21-4.11,4.43-8.34h0c30.14-57.72,59.1-132.47,39.39-180.22a36.31,36.31,0,0,0,4.08-8.46v0a46.75,46.75,0,0,0-.15-30.79c2.05,3.87,4.72,8.18,7.39,14C342.74,121.2,349,142.92,347.86,186.18Z" fill="#efece8"/><path d="M258.79,360.74l2.16,3-4.15,18v0h0q-1.47,4-2.49,7.24L238,400.67l-2.47-4.18h0l-4.32-7.32-5.28-9-11.15-18.91-16.7-28.34c15.54-32.7,26.93-60.93,34.81-85.25,9.11-28.07,13.56-50.91,14.32-69.35h0c-1.44-53.33-35.33-66.14-46.42-68.91h0a100.61,100.61,0,0,0-29.51-2.27,85.58,85.58,0,0,1,19-2c19.72.26,43.84,8.2,58.18,40.06.7,1.55,1.38,3.07,2,4.54,24.28,55.59,10.95,59.14.19,111.52q-1.11,5.38-1.82,10.64a176.36,176.36,0,0,0-1.6,25.64,193.43,193.43,0,0,0,3.21,32.84,182.19,182.19,0,0,0,6.14,24.19c1.27,3.83,2.17,6,2.23,6.12Z" fill="#9a9794"/><path d="M281.94,238.45c-5.91,30.41-19.3,64.73-31.52,92-12.92,28.84-24.52,49.76-24.52,49.76l-11.15-18.91c6.95-13.59,22.21-43.47,32.46-63.69a1.74,1.74,0,0,0,.1-.19c13.62-26.88,50.83-107.9,22.84-164.48a72.62,72.62,0,0,0-20.76-25.79h0a75.14,75.14,0,0,0-29.63-13.56h0a110,110,0,0,0-37.94-1.36,140.92,140.92,0,0,1,33.41-1.65c21.2,1.73,36.58,9.37,47.53,20.66h0C292.31,141.68,289.63,198.82,281.94,238.45Z" fill="#a5a2a0"/><path d="M280,327.62c-2.81,2.61-5.29,12.34-17.78,40.86-2.17,5-3.93,9.35-5.37,13.21v0h0q-1.47,4-2.49,7.24c-4.12,12.92-3.57,17.71-3.57,17.71-3,4.92-4.71,7.67-4.71,7.67L238,400.67l-2.47-4.18h0l-4.32-7.32,25.38-34.54,13.25-18.05a64.65,64.65,0,0,1,6.7-6.15h0C278.3,328.92,279.76,327.77,280,327.62Z" fill="#dad7d3"/><path d="M304.65,290.53s61.07-97.85,30-162.28C334.6,128.25,353.3,183.13,304.65,290.53Z" fill="#fffbf7"/><path d="M173.69,93.64a79.37,79.37,0,0,1,8.11-1.45Q177.84,92.81,173.69,93.64Z" fill="#a5a2a0"/><path d="M270.64,79.62l-5.26-.45s-13.28.94-24.69-4.83S203.12,45.67,170,78.08,107.55,97,107.55,97L109,93.65s2.76-32.51,8.29-38.4c5-1.66,42.72-15.53,47.51-17.49l17.68-3.69,12.89,2.77L217.3,48l18.41,11.14,16.7,8.59,9.09,3.07s8.53,2.52,19.05-2.55Z" fill="#fefaf6"/><path d="M316.75,70.23a50.65,50.65,0,0,0-5-6.35h0c-6.52-7.12-19.1-17.22-36.94-15.44-21.12,2.1-36.8,6.36-50.19,2.47h0a33.32,33.32,0,0,1-10.95-5.54c-.73-.55-1.39-1.07-2-1.56-.86-.69-1.59-1.33-2.22-1.9h0c-8.61-7.87,2.74-5.25,2.74-5.25l19.4,3.56,13.75,2.52,6.76-1s16.14.52,28.08.53h.05a34.83,34.83,0,0,0,7.1,1.16c10.18,0,15.34,3.55,16.57,6.25.59,1.29,4.59,7.32,9.26,14.76C314.33,66.29,315.54,68.24,316.75,70.23Z" fill="#ebe7e3"/><path d="M252.1,41.72s-12.06,6-20,5.52S211.86,43,211.5,43.93l-27.16-9.86-3.69-.73S200,26.71,214.91,30,231.3,40.52,252.1,41.72Z" fill="#bbb8b5"/><path d="M111.07,80.48s48.59-56.72,84.32-41.43S257,82.14,280.55,68.23c0,0-10.6,8.08-33.6-4.08S205.64,35.7,183.6,32.6,125.45,58.38,111.07,80.48Z" fill="#ccc9c6"/><path d="M309.56,98.79h0v3.6L285.8,92.26,272.41,75.67c4.16-2.87,6.64-6.17,8.11-7.41l0,0h0q.54-.45,1.2-1h0C308.46,56.73,309.54,98.18,309.56,98.79Z" fill="#dedbd7"/><path d="M323.82,128.25C307.88,99,250.87,92.26,233.2,84.9c-12.87-5.37-19.43-13.07-22-16.86,8.32,1.16,16.61,4.43,25.49,8.14,12.81,5.37,22.06,5.19,28.73,3h0a27.54,27.54,0,0,0,7-3.5c4.16-2.87,6.64-6.17,8.11-7.41l0,0h0q.54-.45,1.2-1a164.79,164.79,0,0,1,27.8,31.52h0C321,115.94,323.82,128.25,323.82,128.25Z" fill="#bcbab7"/><path d="M258.67,592s6.94-20,2.15-53.91c0,0-9.83-47.44-37.39-71.5s-6.07-22.09-4.72-21.11c0,0-6.14-2.83-11.05,1.72s-33.39-37.57-52.29-103.86v12l1.88-3.63s17,55.86,33.44,80.83c0,0,17.32,33.41,19.36,40.41,0,0-10.47-28.47-18-39.84,0,0,16.14,21.91,25.23,31.24S271.87,517.52,258.67,592Z" fill="#e1deda"/><path d="M279.16,639.29a29.84,29.84,0,0,1-9,3.62c-.73.35-1.47.69-2.2,1a104.37,104.37,0,0,1-15.83,5.65,95.55,95.55,0,0,1-20.64,3.18h0c-1.88.08-3.7.11-5.48.08-.82,0-1.63,0-2.43-.08s-1.7-.08-2.54-.13c-3.12-.22-6.07-.59-8.83-1-1.48-.25-2.91-.52-4.28-.82h0q-2.73-.6-5.15-1.28h0a69.39,69.39,0,0,1-15.67-6.24l1-.36h0c1.19-.44,3.38-1.24,6.17-2.19,1.72-.59,3.67-1.23,5.75-1.89,3.48-1.1,7.31-2.23,11.05-3.17h0c1.81-.45,3.61-.86,5.32-1.2a36.8,36.8,0,0,1,9.82-.89,35.55,35.55,0,0,1,8.24,2.34c5,1.84,10.69,4.25,17,5.16a30.55,30.55,0,0,0,17.41-2.24,34.7,34.7,0,0,0,4.95-2.7h0l5.22,1.17Z" fill="#ccc9c6"/><path d="M302.82,607.07c-6,18.87-16.25,27.94-23.66,32.22a29.84,29.84,0,0,1-9,3.62s1.49-2.63,3.6-6.82h0c1-2,2.16-4.33,3.36-6.91C277.13,629.17,284.11,638.92,302.82,607.07Z" fill="#ccc9c6"/><path d="M259.35,538.07S252.1,560.09,236,575c0,0,0-36.49-12.57-67.67,0,0-9.62-21-10.85-22.4s-20.13-31.12-23.69-35.67c0,0,3.07,9,3.68,9.83s18.79,28.6,19.28,29.7S215,501.93,215,501.93l6.14,7.09s16.74,38.66,13.62,78.11c0,0-10.33,29.28-.86,31.42s16.33,1.72,22.72-13.87l3.37-3.13.74-4.48-2-3.91-.06-1.18s1.31-5.35,1.38-6.53,1.32-12.13,1.32-12.13l.43-8.47S261.43,541,259.35,538.07Z" fill="#e1deda"/><path d="M158.8,379.9s5,30.2,7.37,33.88v-7.11S160.77,384.57,158.8,379.9Z" fill="#cecbc8"/><path d="M209.63,563.43s-3.5-63-18.94-95.78-28.94-63.93-52.39-98.06-61-119.88-66.66-149.68S64.27,131.18,86.86,86c0,0-24.06,71.94-12.27,129.27S154.51,388.37,163,400.89,211.31,476.12,209.63,563.43Z" fill="#e1deda"/><path d="M207.15,416.76s1.94-3.33,2.91-2.44.34,2.91,2.4,4.81.36,4.63-1.5,3.37c0,0,.38,1.39-.35,2.08s-2.12.64-3.7-.63-3.51-2.72-4.08-3.06.44-2.79,1.87-3c0,0-4.08-3-5.73-6.92s-.71-4.43-.17-4.3S203.7,408.94,207.15,416.76Z" fill="#8c1539"/><path d="M225.79,441.15s-6.26-5.15-7.78-7.84-4.2-5.8-6.64-5.84-1.73,3.8,2.53,6.2,4.42,3,4.38,4.05,2,4,3.67,4.76,5,3,5.44,4,3.5,5.1,8.39,4.72,4.13-8.05,3-9.32-4.39-4.76-4.68-5.87-3.28-6.13-4.93-7.14-2.5-.16-3.45-1.62-5.36-6.87-7.93-6.72-.85,3.73,1.77,5.29,10.12,5.74,11.63,10.06c0,0-6-5.72-8.55-7s-5.23-1.86-5.27-.38S217,430.85,225.79,441.15Z" fill="#8c1539"/><path d="M215.6,437.17s-7.14-4.36-10.3-2.47,1.07,5.31,3.79,4.87.59-2.93,6.83-2.27Z" fill="#8c1539"/><path d="M225.77,424.34s-6.13-5.71-5.15-9.27,5.4-.39,5.71,2.35-2.67,1.36-.36,7.19Z" fill="#8c1539"/><path d="M238.81,453.23s-2.53,2.7-8.85-1.18-16.42-13.57-21.19-10.37a18.57,18.57,0,0,1,2.22,2.49s-4.3.29-5.1,2.78c0,0,3.41,2.57,3.33,2.95s-3.33,3.42-.72,4.76c0,0,.68-1.22,2.28,0s2.65,4.39,6.49,4.43,5.94-5.19.55-9c-1.9-1.14-3.8-.42-3.33,1.43,0,0,4.43.12,3.88,3.84s-5-.09-6.37-2.19-.67-8.06,4.51-6.75,9.4,6.75,11.17,8.26S238,460.07,238.81,453.23Z" fill="#8c1539"/><path d="M241.57,450.17s2.89-2.31-.48-8.92-12.23-17.43-8.66-21.94a18.87,18.87,0,0,0,2.3,2.41s.64-4.26,3.18-4.87c0,0,2.29,3.61,2.68,3.56s3.66-3.05,4.8-.34c0,0-1.27.57-.18,2.27s4.16,3,3.9,6.82-5.64,5.52-9-.17c-1-2-.11-3.81,1.7-3.2,0,0-.23,4.42,3.52,4.17s.31-5-1.69-6.52-8-1.31-7.08,4,6,9.91,7.36,11.79S248.45,449.94,241.57,450.17Z" fill="#8c1539"/><path d="M264.53,449.52s-6.41-3.46-5.48,4.05,10.12,7.42,16.1,17.2-1.26,17-1.26,17a15.7,15.7,0,0,0-3.21-12c-4.46-5.48-18.71-17.37-20.48-22.35s-1.1-9.61,2.44-10.2A11.44,11.44,0,0,1,264.53,449.52Z" fill="#8c1539"/><path d="M236.28,478.86s-4.13-1.94-3.88-9.86,8.1-11,16.19.34,5.23,20.48,17,25c0,0-1.77,3.45-7.76,2s-8.17-6.83-10.7-16.61S234.51,470.6,236.28,478.86Z" fill="#8c1539"/><path d="M247,459.09s7.59,13.62,8.1,15.39,6.36,15,11.25,14.75c1,0,5.06,4.6,17.33,37.1a5.75,5.75,0,0,1,.17,4.09c-.25.64-2.63,5.84,7,13.05,0,0,.76-7.9,0-11.19s-3.92-3.35-5.18-8-11.77-28.52-14.8-32.88-.42-5.48-.93-7.34S264.87,470.43,247,459.09Z" fill="#8c1539"/><path d="M280.47,484.93s-4,7.76-1.35,14.51,5.81,11.72,5.56,13.74c0,0,3.71-.67,5.23-6.74S281.22,487.3,280.47,484.93Z" fill="#8c1539"/><path d="M260.82,499.06s4.72,10.58,6,15.64,8.67,5.31,11.41,2.44c0,0-2.81-7-3.49-8.68S272.88,499.61,260.82,499.06Z" fill="#8c1539"/><path d="M297.18,515.52h0c-2.18-.1-8.24,2.21-8.24,2.21,1.64-4.3,6.07-7.33,6.07-7.33a1.86,1.86,0,0,1,.18.24h0A32,32,0,0,1,297.18,515.52Z" fill="#8c1539"/><path d="M278.22,524s-16,11.45-18.48,22.45c0,0-1.49-2.65-1.11-4,0,0-4.47,2.74-5.44,2.4,0,0,2.65-5.52,2.78-5.9s-1.73-.38-1.73-.38S261.65,522.83,278.22,524Z" fill="#8c1539"/><path d="M283.21,528.61a18.33,18.33,0,0,0-9,7.84c-3.63,6.07-2.74,9.36-.26,11.09,0,0,5-3.54,3.53-7.88,0,0,5.66,0,6-.26S279.75,533.8,283.21,528.61Z" fill="#8c1539"/><path d="M288.9,525.26s.69-3,10.68-2.66c0,0,2.34,6.77,2.57,9.17,0,0-2-2.59-2.82-2.59,0,0-2,4.27-4.68,4.39C294.65,533.57,295.06,526.75,288.9,525.26Z" fill="#8c1539"/><path d="M284.81,540.54s1.35,5.48-.26,8.56S280,554,277,550.74c0,0,2.44-.63,3.16-2.53S283.25,540.54,284.81,540.54Z" fill="#8c1539"/><path d="M287,543.15s.8,9-1.86,11c0,0,5.1.76,6-3.29S287.29,543.15,287,543.15Z" fill="#8c1539"/><path d="M293.58,548.68s-1.27,7.67,1.05,8.26,3.84-2.73,2.45-4.13A27.7,27.7,0,0,1,293.58,548.68Z" fill="#8c1539"/><path d="M302.85,547s-2.19,3.21-3.41,3.42-5.86-.72-4.73-8.56c0,0,4.64,4.55,5.82,4.89A7.33,7.33,0,0,0,302.85,547Z" fill="#8c1539"/><path d="M304.92,541c-.11.19-.23.4-.38.63-2.4,3.76-6.2,1.1-6.93-.41a45.94,45.94,0,0,0-3.08-4.72s1.62-2.36,5,.59c1.85,1.61,3.89,1.7,5,2h0C304.65,539.76,304.78,540.37,304.92,541Z" fill="#8c1539"/><path d="M229.33,481.5s9,7.9,2.15,17.2c0,0,6.76-.51,6.51-7.65S229.33,481.5,229.33,481.5Z" fill="#8c1539"/><path d="M222.24,493.45s-.37,7.23,4.68,5.88,6.83-9.36.7-15.24-12.27-.57-12.65,1.27c0,0-3.92-3.12-4-4,0,0-4.18,2.12.82,10.91,0,0-4.93-.06-5.25-1.14,0,0-2.84,5,6.07,11,0,0-3.43,1.89-3.86,2a10.19,10.19,0,0,0,10.5,6.13c8-.56,16.13-5.81,24.48-4s14.22,10.49,10.37,21.78a3,3,0,0,0,.44,2.94s3.1-5,3-10.33-.61-11-10.28-16.29-22.83,3.37-30.55-5.33,6.07-18.89,10.18-9.53C227.68,491.49,227.37,497.94,222.24,493.45Z" fill="#8c1539"/><path d="M253.19,519.67a31.58,31.58,0,0,0-29.81,8.94s.76-5.23,2.28-6.32c0,0-5.19-.21-5.48,0,0,0,3.37-5.6,7.67-6.66a5.27,5.27,0,0,0-2.19-.25S242.09,501.89,253.19,519.67Z" fill="#8c1539"/><path d="M196.89,631.62s-.7-12.14-12.33-17.45a7.71,7.71,0,0,1,4.61.38s-.54-3.32-1.26-3.92c0,0,4.2,1.49,5.91,3.79,0,0,.28-1.17-.16-1.67C193.66,612.75,206.31,620.73,196.89,631.62Z" fill="#8c1539"/><path d="M206.78,604.37s-4,.76-2.84,3.89,6.83,4.23,9.58,1.74,4.9-10.12-3.67-13.06c0,0,.7-3.75,1.45-3.7,0,0-3.77-1-6.55,4.09,0,0-1.55-2.13-1-4.17,0,0-4.68,1.15-5.53,7.48,0,0-2.13-1.48-2.13-1.88,0,0-4.59,4.09-.42,9.57s9.61,10.92,9.7,14.88-3.77,11.7-10.67,11.58c-1.39,0-3,1.23-1.61,2.37s10.89-2,13.84-6.86,2.28-9.53-.8-13.2-7.34-10.16-4.34-15,8.13-3.54,9.44-.71-.68,5.56-2.19,5.86S205.32,606.43,206.78,604.37Z" fill="#8c1539"/><path d="M200.11,648.57s-10.12-7.52-18.21-5.94c0,0,1.26-2,2.28-2a30.51,30.51,0,0,0-2.91-2.36,8.87,8.87,0,0,1,4.89.25,2.85,2.85,0,0,0-.55-1.22S197.52,639,200.11,648.57Z" fill="#8c1539"/><path d="M210.36,629.54s-5.06,5-6.8,6-4.81,3.13-3.61,5.88a9,9,0,0,0,2.66,3.74s6.51-5.55,7.87-7.74S210.74,630.23,210.36,629.54Z" fill="#8c1539"/><path d="M246.34,623.91s0-4.18-2.28-3.48-4.8,3.73-5.44,6.83a20.35,20.35,0,0,1-4.18,8.61,9.62,9.62,0,0,1-4.29,3c-5.19,1.65-8,.19-9-1,0,0-7.36,7.21-13.23,12.87h0q-2.73-.6-5.15-1.28c2.83-2,10.5-7.65,14.72-13.61,0,0-.5-.61-1.12-1.44a17.62,17.62,0,0,1-2.17-3.49c-.5-1.52-.82-5.63,3.8-8.22s8.66-6.58,8-9.23-4.24-2.47-5.38-1c0,0,1.71-5.76,7.46-5.5a5.6,5.6,0,0,1,1.94.39c3.47,1.4,2.36,6.18,1.48,7.38l-.73.94c-2,2.55-6.81,8.64-6.16,10.76,0,0,4.79-4.79,8.15-8.38a36.16,36.16,0,0,0,3.17-3.64s-.4,1.79-1.17,4.27a41,41,0,0,1-4.89,10.77c.25-.23,4.27-4,5.62-6.3.48-.85,1.26-2.36,2.23-4,1.81-3,4.32-6.22,7-5.85a4.39,4.39,0,0,1,3.79,3.56C249,618.94,248.38,621.49,246.34,623.91Z" fill="#8c1539"/><path d="M229.52,642.25l-8.47,10.37c-3.12-.22-6.07-.59-8.83-1C216.26,647.33,223,641.65,229.52,642.25Z" fill="#8c1539"/><path d="M266,638.36a18.58,18.58,0,0,1-1.26,1.9c-1.34,1.8-3.65,4.3-6.36,4.74-4,.64-21-5.51-32.4,7.83-.82,0-1.63,0-2.43-.08,4.12-5.29,11.94-13.55,20-12.34a45.68,45.68,0,0,0,7.85.62c6.2-.15,9.34-2.38,11.62-6.81,3.1-6,1.39-8.6-3.54-6.9s-4.55,11,.06,5.7c-.07.32-1.57,6.43-6.13,3.54s-1.11-17.1,10.1-12.55c1.39.47,2.82,1.57,4.72-3.49,0,0,2.51,1.81-1.8,9,0,0,3.23-1.55,3.64-2.66,0,0,1.36,4-6.35,11.39A4.74,4.74,0,0,0,266,638.36Z" fill="#8c1539"/><path d="M252.14,649.57a95.55,95.55,0,0,1-20.64,3.18C236.1,649.58,244.67,645.14,252.14,649.57Z" fill="#8c1539"/><path d="M249.31,595.52a8.21,8.21,0,0,0,2.21-2.36c1.21-1.76,4.87-4.54,6.14-3.84,0,0-.38,2.43-.16,2.56a4.19,4.19,0,0,1,4.33,0s-1.74,2.72-1.23,3.51c0,0,2.62.09,3.1,1.7,0,0-2.44.54-2.63,2.6s-1.67,5.94-3.7,6a3.44,3.44,0,0,1-3.7-3.7c-.06-2.53,1.65-6.71,4.24-4.27,0,0-3.41,1.67-1.41,4.39s6.44-5.5.84-7.65-6.13,10.66-8.5,13.38-4.63,2.66-7.33,1.19-4.68,1.26-7.76-2.62,1.69-10.07.59-14-4.46-5-6.24-2.4-1.3,6.24.26,5.86,2.91-2.53,1.52-3.54c0,0,1.09-1.69,2-.25s-.13,7.16-3.12,7.25-4.09-2.62-3.54-5.48,2-4.09-.14-4.64c0,0-.2-2.87,3.85-1.52,0,0,.08-2.61-.55-3.2,0,0,1.56-1.1,4.64,1.94,0,0,.54-1.53.21-2.13,0,0,2.06-.23,3.49,4.61s2.2,4.77,2.2,4.77.42-6,3.12-6.87-.55-4-.47-5.48c0,0,2.48-.93,3.52.87,0,0-.12-9.61,1.46-11.86s2.88,3.45,2.43,6.49-1.93,4.52-.06,4.58a2.27,2.27,0,0,1,2.24,1.58,29.58,29.58,0,0,0-2.25,4.15,2.83,2.83,0,0,0,1,2.24c.55.29,1.68,2.19-.8,6.11Z" fill="#8c1539"/><circle cx="101.12" cy="138.48" r="23.1" fill="#8c1539"/><path d="M92.67,148A5.94,5.94,0,0,1,91,152.15a17,17,0,0,1-6.46-9.78,5.8,5.8,0,0,1,2.13-.4A6,6,0,0,1,92.67,148Z" fill="#fff"/><path d="M93.92,126.91a6,6,0,0,1-6,6,5.74,5.74,0,0,1-2.64-.63,17,17,0,0,1,7.63-8.72A5.92,5.92,0,0,1,93.92,126.91Z" fill="#fff"/><path d="M111.31,124.83a6,6,0,0,1-11.18-3,1.51,1.51,0,0,1,0-.31c.33,0,.64,0,1,0A17,17,0,0,1,111.31,124.83Z" fill="#fff"/><path d="M118.15,138.48a17,17,0,0,1-1.4,6.77,6,6,0,0,1,.65-11.79A17,17,0,0,1,118.15,138.48Z" fill="#fff"/><path d="M110.82,152.47a16.9,16.9,0,0,1-9.7,3,13.09,13.09,0,0,1-1.66-.1.9.9,0,0,1,0-.23,6,6,0,0,1,11.38-2.71Z" fill="#fff"/><polygon points="106.55 143.81 97.92 145.18 93.95 137.4 100.13 131.22 107.92 135.18 106.55 143.81" fill="#fff"/><rect x="92.71" y="174.02" width="11.01" height="10.58" transform="translate(155.56 -16.93) rotate(45)" fill="#8c1539"/><rect x="105.56" y="92.68" width="11.01" height="10.58" transform="translate(140.38 -47.2) rotate(60)" fill="#8c1539"/><path d="M122.14,377.39l-3.38-5.65,3.07-1.84,9.61,16-3.07,1.84L125,382.13,108.48,392l-2.84-4.74Z" fill="#bcbab7"/><path d="M130.41,412.09c3.34-2,7.2-4.21,9.47-5.46l-.06-.11c-4.27,1.31-11.75,3.81-19.13,5.88l-2.56-4.27c5.14-4.83,11.25-10.56,14.53-13.67l-.09-.15c-2.19,1.53-6.22,4.1-9.6,6.13l-7,4.16-2.59-4.32L133,388.54l4.24,7.08c-4.58,4.62-9.32,9.11-11.86,11.35l0,0c3-1.05,9.87-2.93,15.87-4.66l4.14,6.91L125.85,421l-2.72-4.54Z" fill="#bcbab7"/></svg>